<svg width="89" height="18" viewBox="0 0 89 18" fill="none" xmlns="http://www.w3.org/2000/svg">
<path fill-rule="evenodd" clip-rule="evenodd" d="M11.665 0.354492V10.9619L3.11835 0.354492H0V17.0914H3.45345V6.35581L12.106 17.0914H15.1326V0.354492H11.665Z" fill="#F8232D"/>
<path fill-rule="evenodd" clip-rule="evenodd" d="M72.0534 0.354492L68.1252 7.53557L64.1978 0.354492H60.2899L66.3769 11.185V17.0914H69.8742V11.185L75.9613 0.354492H72.0534Z" fill="#F8232D"/>
<path fill-rule="evenodd" clip-rule="evenodd" d="M52.2214 0.353516V17.0904H63.6963V13.5983H55.6978V0.353516H52.2214Z" fill="#F8232D"/>
<path fill-rule="evenodd" clip-rule="evenodd" d="M47.2646 10.2655C48.7466 9.24783 49.6319 7.55751 49.6319 5.7425C49.6319 2.97426 47.5815 0.687486 44.9527 0.388217C44.78 0.373669 44.4834 0.352194 44.2164 0.353579H35.9448V17.0912H39.4205V11.1959H42.8537L46.1096 17.0912H50.0169L46.4731 10.6811C46.9518 10.4851 47.2167 10.3008 47.2646 10.2655ZM44.3235 7.71252H39.3787V3.86012H44.1563C44.4132 3.86635 44.6762 3.88506 44.9587 3.98066C45.668 4.25429 46.177 4.96921 46.177 5.80814C46.177 6.85835 45.345 7.71252 44.3235 7.71252Z" fill="#F8232D"/>
<path fill-rule="evenodd" clip-rule="evenodd" d="M84.6481 7.15485C83.8491 6.97335 82.9025 6.82787 82.0678 6.69902C81.4778 6.60827 80.9209 6.52237 80.6209 6.45378C79.4059 6.1753 79.4113 5.37655 79.4146 5.02394C79.4221 4.14345 80.4044 3.61904 81.3753 3.54284C81.5385 3.52621 81.734 3.51513 81.9673 3.51651C82.2215 3.5179 82.4292 3.52967 82.6018 3.5463C83.8727 3.62666 84.611 4.30417 84.8234 4.81958C84.8895 4.98168 84.9212 5.08005 84.9212 5.08005H88.3106C88.3139 3.80193 87.7064 2.52518 86.6411 1.57334C85.6116 0.653365 84.2287 0.101933 82.7488 0.0215741C82.3638 0.000791508 81.8406 -0.00405776 81.4158 0.00979729C78.3413 0.107475 76.0064 2.24947 75.9828 4.99346C75.9625 7.42225 77.4533 9.27536 79.8752 9.82957C80.2925 9.92517 80.8791 10.0152 81.5587 10.1205C82.3388 10.2404 83.2241 10.3761 83.9071 10.532C85.5779 10.911 85.5698 11.842 85.5671 12.1482C85.5583 13.3044 84.4748 13.691 83.6731 13.8184C83.3987 13.8739 82.9827 13.9272 82.3968 13.9237C81.7886 13.9196 81.3679 13.8849 81.08 13.8448C80.3855 13.7686 79.7599 13.47 79.3074 13.0142C79.0276 12.7322 78.8813 12.4461 78.7788 12.0291H75.3955C75.3955 13.2795 75.914 14.514 76.8707 15.497C78.172 16.834 79.7821 17.3376 81.4724 17.3889C82.0266 17.4055 82.2343 17.4083 82.8782 17.4041C84.495 17.393 85.832 17.0778 87.1509 16.056C88.3463 15.1291 88.9868 13.7298 88.9996 12.178C89.0205 9.65361 87.3538 7.77001 84.6481 7.15485Z" fill="#F8232D"/>
<path fill-rule="evenodd" clip-rule="evenodd" d="M31.8138 2.04502C30.6474 0.850716 29.1621 0.14965 27.5621 0.0415809C26.9209 -0.00206254 26.4017 1.57146e-05 26.4017 1.57146e-05V3.61757C26.4017 3.61757 27.3612 3.66675 27.8439 3.79491C29.1769 4.14891 30.224 5.43189 30.2995 6.96634C30.3858 8.70445 30.3912 8.90881 30.3009 10.428C30.2085 11.9722 29.1607 13.2711 27.8352 13.6181C27.2769 13.7643 26.4017 13.8121 26.4017 13.8121V17.413C26.4017 17.413 27.1238 17.402 27.5621 17.3722C29.1695 17.2586 30.642 16.5596 31.8071 15.3597C33.0342 14.0982 33.7671 12.4266 33.8736 10.6525C33.9728 8.98294 33.9667 8.64626 33.8743 6.7786C33.786 4.99545 33.0544 3.31414 31.8138 2.04502Z" fill="#F8232D"/>
<path fill-rule="evenodd" clip-rule="evenodd" d="M23.5129 0.0415702C21.913 0.14964 20.4283 0.850705 19.2612 2.04501C18.0206 3.31413 17.2897 4.99544 17.2014 6.77928C17.1083 8.64625 17.1023 8.98293 17.2021 10.6525C17.3079 12.4266 18.0415 14.0982 19.2679 15.3597C20.4337 16.5596 21.9055 17.2592 23.5129 17.3715C23.9512 17.4026 24.674 17.413 24.674 17.413V13.8121C24.674 13.8121 23.7988 13.765 23.2405 13.6188C21.9143 13.2711 20.8665 11.9722 20.7742 10.428C20.6845 8.9088 20.6899 8.70444 20.7755 6.96632C20.8517 5.43188 21.8981 4.1489 23.2311 3.7949C23.7145 3.66674 24.674 3.61756 24.674 3.61756V5.08909e-06C24.674 5.08909e-06 24.1541 -0.00138042 23.5129 0.0415702Z" fill="#F8232D"/>
</svg>
